<svg width="143" height="22" viewBox="0 0 143 22" fill="none" xmlns="http://www.w3.org/2000/svg">
<path d="M0.453835 17V0.272727H11.7251V3.18856H3.99041V7.17436H11.1452V10.0902H3.99041V14.0842H11.7578V17H0.453835ZM18.0489 17.2369C17.2485 17.2369 16.5352 17.098 15.909 16.8203C15.2828 16.5372 14.7873 16.1206 14.4225 15.5707C14.0631 15.0153 13.8834 14.3237 13.8834 13.4961C13.8834 12.7991 14.0114 12.2138 14.2673 11.7401C14.5232 11.2663 14.8717 10.8852 15.3128 10.5966C15.7538 10.308 16.2548 10.0902 16.8156 9.94318C17.3819 9.79616 17.9754 9.69271 18.5961 9.63281C19.3258 9.55658 19.9139 9.4858 20.3604 9.42045C20.8068 9.34967 21.1308 9.24621 21.3323 9.11009C21.5338 8.97396 21.6345 8.77249 21.6345 8.50568V8.45668C21.6345 7.93939 21.4711 7.53918 21.1444 7.25604C20.8232 6.97289 20.3658 6.83132 19.7723 6.83132C19.1461 6.83132 18.6479 6.97017 18.2776 7.24787C17.9073 7.52012 17.6623 7.86316 17.5425 8.27699L14.3245 8.01562C14.4878 7.25331 14.8091 6.59446 15.2883 6.03906C15.7674 5.47822 16.3854 5.04806 17.1423 4.74858C17.9046 4.44366 18.7867 4.29119 19.7886 4.29119C20.4856 4.29119 21.1526 4.37287 21.7897 4.53622C22.4322 4.69957 23.0012 4.95277 23.4967 5.29581C23.9977 5.63885 24.3924 6.0799 24.681 6.61896C24.9696 7.15258 25.1139 7.79238 25.1139 8.53835V17H21.8142V15.2603H21.7162C21.5147 15.6523 21.2452 15.9981 20.9076 16.2976C20.57 16.5916 20.1643 16.823 19.6906 16.9918C19.2169 17.1552 18.6697 17.2369 18.0489 17.2369ZM19.0454 14.8356C19.5572 14.8356 20.0091 14.7348 20.4012 14.5334C20.7932 14.3265 21.1009 14.0488 21.3241 13.7003C21.5474 13.3518 21.659 12.957 21.659 12.516V11.1847C21.5501 11.2554 21.4004 11.3208 21.2098 11.3807C21.0247 11.4351 20.815 11.4869 20.5809 11.5359C20.3467 11.5794 20.1126 11.6203 19.8785 11.6584C19.6443 11.6911 19.432 11.721 19.2414 11.7482C18.833 11.8081 18.4764 11.9034 18.1714 12.0341C17.8665 12.1648 17.6296 12.3417 17.4608 12.565C17.2921 12.7828 17.2077 13.055 17.2077 13.3817C17.2077 13.8555 17.3792 14.2176 17.7222 14.468C18.0707 14.7131 18.5117 14.8356 19.0454 14.8356ZM38.2515 8.03196L35.0661 8.22798C35.0117 7.95573 34.8946 7.7107 34.7149 7.4929C34.5352 7.26965 34.2984 7.09268 34.0044 6.962C33.7158 6.82588 33.37 6.75781 32.9671 6.75781C32.428 6.75781 31.9733 6.87216 31.6031 7.10085C31.2328 7.3241 31.0477 7.62358 31.0477 7.99929C31.0477 8.29877 31.1675 8.55196 31.407 8.75888C31.6466 8.96579 32.0577 9.13187 32.6404 9.2571L34.911 9.71449C36.1307 9.96496 37.04 10.3679 37.6389 10.9233C38.2379 11.4787 38.5374 12.2083 38.5374 13.1122C38.5374 13.9344 38.2951 14.6559 37.8105 15.2766C37.3313 15.8974 36.6724 16.382 35.8339 16.7305C35.0008 17.0735 34.0397 17.245 32.9507 17.245C31.29 17.245 29.9668 16.8993 28.9813 16.2077C28.0012 15.5108 27.4267 14.5633 27.2579 13.3654L30.6801 13.1857C30.7836 13.6921 31.0341 14.0787 31.4316 14.3455C31.829 14.6069 32.3382 14.7376 32.9589 14.7376C33.5687 14.7376 34.0588 14.6205 34.4291 14.3864C34.8048 14.1468 34.9954 13.8391 35.0008 13.4634C34.9954 13.1476 34.8619 12.889 34.6006 12.6875C34.3392 12.4806 33.9363 12.3227 33.3918 12.2138L31.2192 11.7809C29.9941 11.5359 29.082 11.1112 28.483 10.5067C27.8895 9.90234 27.5928 9.13187 27.5928 8.19531C27.5928 7.38944 27.8106 6.69519 28.2462 6.11257C28.6872 5.52995 29.3052 5.08073 30.1002 4.76491C30.9007 4.4491 31.8372 4.29119 32.9099 4.29119C34.4944 4.29119 35.7413 4.62607 36.6507 5.29581C37.5654 5.96555 38.099 6.8776 38.2515 8.03196ZM42.8764 21.7045C42.4354 21.7045 42.0215 21.6692 41.6349 21.5984C41.2538 21.533 40.938 21.4486 40.6875 21.3452L41.4716 18.7479C41.88 18.8731 42.2475 18.9412 42.5742 18.9521C42.9064 18.9629 43.1922 18.8867 43.4318 18.7234C43.6768 18.56 43.8756 18.2823 44.0281 17.8903L44.2322 17.3594L39.7319 4.45455H43.391L45.9883 13.6676H46.119L48.7408 4.45455H52.4244L47.5483 18.3558C47.3142 19.031 46.9956 19.6191 46.5927 20.12C46.1952 20.6264 45.6915 21.0157 45.0817 21.288C44.4718 21.5657 43.7367 21.7045 42.8764 21.7045Z" fill="#4C4C4C"/>
<path d="M54.2702 17V0.272727H60.8697C62.1384 0.272727 63.2192 0.515033 64.1122 0.999645C65.0052 1.47881 65.6858 2.14583 66.1541 3.00071C66.6278 3.85014 66.8647 4.83026 66.8647 5.94105C66.8647 7.05185 66.6251 8.03196 66.146 8.88139C65.6668 9.73082 64.9725 10.3924 64.0632 10.8661C63.1593 11.3398 62.0649 11.5767 60.7798 11.5767H56.5735V8.74254H60.2081C60.8887 8.74254 61.4496 8.62547 61.8906 8.39134C62.3371 8.15175 62.6693 7.82232 62.8871 7.40305C63.1103 6.97834 63.2219 6.491 63.2219 5.94105C63.2219 5.38565 63.1103 4.90104 62.8871 4.48722C62.6693 4.06794 62.3371 3.74396 61.8906 3.51527C61.4441 3.28113 60.8778 3.16406 60.1918 3.16406H57.8068V17H54.2702ZM69.0965 17V4.45455H72.4697V6.64347H72.6004C72.8291 5.86482 73.213 5.27675 73.752 4.87926C74.2911 4.47633 74.9118 4.27486 75.6143 4.27486C75.7885 4.27486 75.9764 4.28575 76.1778 4.30753C76.3793 4.32931 76.5563 4.35926 76.7087 4.39737V7.48473C76.5454 7.43572 76.3194 7.39216 76.0308 7.35405C75.7422 7.31593 75.4781 7.29688 75.2385 7.29688C74.7267 7.29688 74.2693 7.4085 73.8664 7.63175C73.4689 7.84955 73.1531 8.15447 72.9189 8.54652C72.6903 8.93857 72.5759 9.39051 72.5759 9.90234V17H69.0965ZM83.592 17.245C82.3233 17.245 81.2261 16.9755 80.3004 16.4364C79.3802 15.8919 78.6696 15.1351 78.1687 14.1658C77.6677 13.1912 77.4173 12.0613 77.4173 10.7763C77.4173 9.48035 77.6677 8.34777 78.1687 7.37855C78.6696 6.40388 79.3802 5.64702 80.3004 5.10795C81.2261 4.56345 82.3233 4.29119 83.592 4.29119C84.8607 4.29119 85.9551 4.56345 86.8754 5.10795C87.801 5.64702 88.5143 6.40388 89.0153 7.37855C89.5162 8.34777 89.7667 9.48035 89.7667 10.7763C89.7667 12.0613 89.5162 13.1912 89.0153 14.1658C88.5143 15.1351 87.801 15.8919 86.8754 16.4364C85.9551 16.9755 84.8607 17.245 83.592 17.245ZM83.6083 14.5497C84.1855 14.5497 84.6674 14.3864 85.054 14.0597C85.4406 13.7275 85.7319 13.2756 85.9279 12.7038C86.1294 12.1321 86.2301 11.4814 86.2301 10.7518C86.2301 10.0221 86.1294 9.37145 85.9279 8.79972C85.7319 8.22798 85.4406 7.77604 85.054 7.44389C84.6674 7.11174 84.1855 6.94567 83.6083 6.94567C83.0257 6.94567 82.5356 7.11174 82.1381 7.44389C81.7461 7.77604 81.4493 8.22798 81.2479 8.79972C81.0518 9.37145 80.9538 10.0221 80.9538 10.7518C80.9538 11.4814 81.0518 12.1321 81.2479 12.7038C81.4493 13.2756 81.7461 13.7275 82.1381 14.0597C82.5356 14.3864 83.0257 14.5497 83.6083 14.5497ZM97.6974 17.245C96.4124 17.245 95.3071 16.9728 94.3814 16.4283C93.4612 15.8783 92.7533 15.116 92.2578 14.1413C91.7678 13.1667 91.5227 12.045 91.5227 10.7763C91.5227 9.49124 91.7705 8.36411 92.266 7.39489C92.7669 6.42022 93.4775 5.66063 94.3977 5.11612C95.3179 4.56617 96.4124 4.29119 97.6811 4.29119C98.7756 4.29119 99.7339 4.48994 100.556 4.88743C101.378 5.28492 102.029 5.84304 102.508 6.56179C102.987 7.28054 103.251 8.12453 103.3 9.09375H100.017C99.9245 8.46757 99.6795 7.9639 99.282 7.58274C98.8899 7.19614 98.3754 7.00284 97.7383 7.00284C97.1992 7.00284 96.7282 7.14986 96.3253 7.44389C95.9278 7.73248 95.6174 8.15447 95.3942 8.70987C95.1709 9.26527 95.0593 9.93774 95.0593 10.7273C95.0593 11.5277 95.1682 12.2083 95.386 12.7692C95.6093 13.33 95.9223 13.7575 96.3253 14.0515C96.7282 14.3455 97.1992 14.4925 97.7383 14.4925C98.1358 14.4925 98.4924 14.4109 98.8082 14.2475C99.1295 14.0842 99.3936 13.8473 99.6005 13.5369C99.8129 13.2211 99.9517 12.8427 100.017 12.4016H103.3C103.246 13.36 102.985 14.204 102.516 14.9336C102.054 15.6578 101.414 16.2241 100.597 16.6325C99.7802 17.0408 98.8137 17.245 97.6974 17.245ZM111.245 17.245C109.955 17.245 108.844 16.9837 107.913 16.4609C106.987 15.9328 106.274 15.1868 105.773 14.223C105.272 13.2538 105.022 12.1076 105.022 10.7844C105.022 9.49396 105.272 8.36139 105.773 7.38672C106.274 6.41205 106.979 5.65246 107.889 5.10795C108.803 4.56345 109.876 4.29119 111.107 4.29119C111.934 4.29119 112.705 4.4246 113.418 4.69141C114.137 4.95277 114.763 5.34754 115.297 5.87571C115.836 6.40388 116.255 7.06818 116.554 7.86861C116.854 8.66359 117.004 9.5947 117.004 10.6619V11.6175H106.41V9.46129H113.728C113.728 8.96035 113.62 8.51657 113.402 8.12997C113.184 7.74337 112.882 7.44117 112.495 7.22337C112.114 7.00012 111.67 6.88849 111.164 6.88849C110.636 6.88849 110.167 7.01101 109.759 7.25604C109.356 7.49562 109.04 7.8196 108.812 8.22798C108.583 8.63092 108.466 9.08014 108.46 9.57564V11.6257C108.46 12.2464 108.575 12.7828 108.803 13.2347C109.037 13.6867 109.367 14.0352 109.792 14.2802C110.216 14.5252 110.72 14.6477 111.303 14.6477C111.689 14.6477 112.043 14.5933 112.364 14.4844C112.686 14.3755 112.961 14.2121 113.189 13.9943C113.418 13.7765 113.592 13.5097 113.712 13.1939L116.93 13.4062C116.767 14.1795 116.432 14.8546 115.926 15.4318C115.425 16.0036 114.777 16.45 113.982 16.7713C113.192 17.0871 112.28 17.245 111.245 17.245ZM129.712 8.03196L126.527 8.22798C126.473 7.95573 126.356 7.7107 126.176 7.4929C125.996 7.26965 125.759 7.09268 125.465 6.962C125.177 6.82588 124.831 6.75781 124.428 6.75781C123.889 6.75781 123.434 6.87216 123.064 7.10085C122.694 7.3241 122.509 7.62358 122.509 7.99929C122.509 8.29877 122.628 8.55196 122.868 8.75888C123.108 8.96579 123.519 9.13187 124.101 9.2571L126.372 9.71449C127.592 9.96496 128.501 10.3679 129.1 10.9233C129.699 11.4787 129.998 12.2083 129.998 13.1122C129.998 13.9344 129.756 14.6559 129.271 15.2766C128.792 15.8974 128.133 16.382 127.295 16.7305C126.462 17.0735 125.501 17.245 124.412 17.245C122.751 17.245 121.428 16.8993 120.442 16.2077C119.462 15.5108 118.888 14.5633 118.719 13.3654L122.141 13.1857C122.245 13.6921 122.495 14.0787 122.892 14.3455C123.29 14.6069 123.799 14.7376 124.42 14.7376C125.03 14.7376 125.52 14.6205 125.89 14.3864C126.266 14.1468 126.456 13.8391 126.462 13.4634C126.456 13.1476 126.323 12.889 126.062 12.6875C125.8 12.4806 125.397 12.3227 124.853 12.2138L122.68 11.7809C121.455 11.5359 120.543 11.1112 119.944 10.5067C119.35 9.90234 119.054 9.13187 119.054 8.19531C119.054 7.38944 119.272 6.69519 119.707 6.11257C120.148 5.52995 120.766 5.08073 121.561 4.76491C122.362 4.4491 123.298 4.29119 124.371 4.29119C125.955 4.29119 127.202 4.62607 128.112 5.29581C129.026 5.96555 129.56 6.8776 129.712 8.03196ZM142.627 8.03196L139.442 8.22798C139.388 7.95573 139.271 7.7107 139.091 7.4929C138.911 7.26965 138.674 7.09268 138.38 6.962C138.092 6.82588 137.746 6.75781 137.343 6.75781C136.804 6.75781 136.349 6.87216 135.979 7.10085C135.609 7.3241 135.424 7.62358 135.424 7.99929C135.424 8.29877 135.543 8.55196 135.783 8.75888C136.023 8.96579 136.434 9.13187 137.016 9.2571L139.287 9.71449C140.507 9.96496 141.416 10.3679 142.015 10.9233C142.614 11.4787 142.913 12.2083 142.913 13.1122C142.913 13.9344 142.671 14.6559 142.186 15.2766C141.707 15.8974 141.048 16.382 140.21 16.7305C139.377 17.0735 138.416 17.245 137.327 17.245C135.666 17.245 134.343 16.8993 133.357 16.2077C132.377 15.5108 131.803 14.5633 131.634 13.3654L135.056 13.1857C135.16 13.6921 135.41 14.0787 135.808 14.3455C136.205 14.6069 136.714 14.7376 137.335 14.7376C137.945 14.7376 138.435 14.6205 138.805 14.3864C139.181 14.1468 139.371 13.8391 139.377 13.4634C139.371 13.1476 139.238 12.889 138.977 12.6875C138.715 12.4806 138.312 12.3227 137.768 12.2138L135.595 11.7809C134.37 11.5359 133.458 11.1112 132.859 10.5067C132.266 9.90234 131.969 9.13187 131.969 8.19531C131.969 7.38944 132.187 6.69519 132.622 6.11257C133.063 5.52995 133.681 5.08073 134.476 4.76491C135.277 4.4491 136.213 4.29119 137.286 4.29119C138.87 4.29119 140.117 4.62607 141.027 5.29581C141.941 5.96555 142.475 6.8776 142.627 8.03196Z" fill="#68D391"/>
</svg>
